<?xml version="1.0" encoding="UTF-8" standalone="no"?>
<!-- Created with Inkscape (http://www.inkscape.org/) -->
<svg
   xmlns:svg="http://www.w3.org/2000/svg"
   xmlns="http://www.w3.org/2000/svg"
   xmlns:sodipodi="http://sodipodi.sourceforge.net/DTD/sodipodi-0.dtd"
   xmlns:inkscape="http://www.inkscape.org/namespaces/inkscape"
   width="200"
   height="200"
   id="svg2"
   sodipodi:version="0.32"
   inkscape:version="0.46"
   version="1.0"
   sodipodi:docname="Medical Teams Symbol 2.svg"
   inkscape:output_extension="org.inkscape.output.svg.inkscape">
  <defs
     id="defs4">
    <inkscape:perspective
       sodipodi:type="inkscape:persp3d"
       inkscape:vp_x="0 : 526.18109 : 1"
       inkscape:vp_y="0 : 1000 : 0"
       inkscape:vp_z="744.09448 : 526.18109 : 1"
       inkscape:persp3d-origin="372.04724 : 350.78739 : 1"
       id="perspective10" />
    <inkscape:perspective
       id="perspective2398"
       inkscape:persp3d-origin="372.04724 : 350.78739 : 1"
       inkscape:vp_z="744.09448 : 526.18109 : 1"
       inkscape:vp_y="0 : 1000 : 0"
       inkscape:vp_x="0 : 526.18109 : 1"
       sodipodi:type="inkscape:persp3d" />
  </defs>
  <sodipodi:namedview
     id="base"
     pagecolor="#ffffff"
     bordercolor="#666666"
     borderopacity="1.0"
     gridtolerance="10000"
     guidetolerance="10"
     objecttolerance="50"
     inkscape:pageopacity="0.0"
     inkscape:pageshadow="2"
     inkscape:zoom="1"
     inkscape:cx="100"
     inkscape:cy="100"
     inkscape:document-units="px"
     inkscape:current-layer="svg2"
     showgrid="false"
     inkscape:snap-center="true"
     inkscape:object-nodes="true"
     inkscape:snap-global="false"
     inkscape:window-width="1280"
     inkscape:window-height="930"
     inkscape:window-x="-4"
     inkscape:window-y="-4" />
  <g
     inkscape:label="Layer 1"
     inkscape:groupmode="layer"
     id="layer1"
     transform="translate(342.18494,-330.42076)">
    <path
       sodipodi:type="arc"
       style="opacity:1;fill:none;fill-opacity:0.50196078;stroke:#000000;stroke-width:11.78984451;stroke-linecap:round;stroke-linejoin:round;stroke-miterlimit:4;stroke-dasharray:none;stroke-opacity:1"
       id="path2406"
       sodipodi:cx="698.01538"
       sodipodi:cy="-88.100044"
       sodipodi:rx="146.47212"
       sodipodi:ry="162.63457"
       d="M 844.4875,-88.100044 A 146.47212,162.63457 0 1 1 551.54326,-88.100044 A 146.47212,162.63457 0 1 1 844.4875,-88.100044 z"
       transform="matrix(0.6576072,0,0,0.5922549,-701.20488,482.59844)" />
    <path
       style="fill:#000000"
       d="M -302.84417,501.70518 C -303.94812,501.36971 -304.53959,500.69027 -304.88147,499.3649 C -305.36976,497.47194 -305.39965,360.07644 -304.91172,360.2735 C -304.73899,360.34326 -301.99744,362.00345 -298.81939,363.96281 L -293.0411,367.52529 L -246.72119,367.52624 L -200.40125,367.52719 L -195.21903,362.50861 L -190.03679,357.49004 L -183.46035,362.19462 C -179.84328,364.78214 -176.59397,367.17306 -176.23969,367.50777 C -175.3278,368.36926 -174.55748,370.09787 -174.54071,371.32048 C -174.52519,372.45297 -175.30964,373.5424 -176.64629,374.24462 C -177.22456,374.54839 -185.89506,374.60102 -235.37132,374.60102 L -293.41794,374.60102 L -293.41794,428.41262 L -293.41794,482.22423 L -243.22424,482.22423 L -193.03055,482.22423 L -191.91051,481.06622 C -191.29449,480.42931 -189.0285,478.21707 -186.87496,476.15012 L -182.95943,472.39204 L -176.14513,477.26093 C -172.39727,479.93882 -169.09611,482.42988 -168.80927,482.79662 C -167.90724,483.94979 -167.25084,485.71673 -167.4262,486.51965 C -167.64967,487.54289 -168.4336,488.46677 -169.57525,489.05247 C -170.53401,489.54432 -171.33196,489.55069 -231.9822,489.55069 L -293.41794,489.55069 L -293.41794,493.55088 L -293.41794,497.55108 L -294.7369,498.45519 C -298.37547,500.94933 -301.37483,502.15169 -302.84417,501.70518 z M -276.96237,476.98709 C -278.64969,476.74376 -279.4032,475.11707 -278.80643,473.00614 C -278.47332,471.82791 -278.42971,471.79077 -274.69239,469.50382 C -257.29264,458.85647 -246.8712,447.09859 -244.80498,435.78366 C -244.58482,434.57807 -244.34581,433.39273 -244.27385,433.14956 C -244.14995,432.73092 -245.28431,432.70745 -265.64009,432.70745 L -287.1372,432.70745 L -287.1372,429.04422 L -287.1372,425.38098 L -265.28498,425.38098 L -243.43274,425.38098 L -243.31305,424.81255 C -242.83265,422.53105 -241.95154,412.97758 -241.75191,407.88589 L -241.58599,403.65423 L -250.13066,403.65423 L -258.67532,403.65423 L -259.73917,405.9568 C -261.65526,410.10381 -265.15912,415.1331 -270.13565,420.87934 C -272.44096,423.54122 -272.81809,423.86923 -273.98331,424.22591 C -276.35915,424.95314 -277.81887,424.11789 -278.0298,421.9105 C -278.13763,420.78197 -278.04608,420.53883 -276.71878,418.4285 C -273.7248,413.66819 -269.67048,404.64299 -267.58507,398.09622 C -265.94632,392.95162 -264.33764,386.53396 -263.155,380.42291 C -262.79321,378.55328 -262.46628,376.9925 -262.42849,376.95453 C -262.39073,376.91655 -259.06845,378.32373 -255.04559,380.08159 C -247.91259,383.1985 -247.72083,383.3012 -247.30601,384.22624 C -246.81359,385.32436 -246.76928,387.10005 -247.22064,387.64696 C -247.8253,388.37962 -248.9342,388.74867 -250.53099,388.74867 L -252.13668,388.74867 L -252.44896,389.82237 C -252.94328,391.5219 -254.42925,394.48672 -255.26859,395.44801 L -256.03672,396.32777 L -235.47264,396.32763 L -214.90856,396.32748 L -211.15267,392.71458 L -207.39675,389.10168 L -202.61085,392.36752 C -199.97859,394.16373 -197.45626,395.98363 -197.00571,396.41174 C -195.42303,397.91548 -194.6658,400.54809 -195.45185,401.81383 C -195.62945,402.09979 -196.23041,402.63087 -196.78731,402.99399 L -197.79986,403.65423 L -213.82832,403.65423 L -229.85674,403.65423 L -229.86157,404.85425 C -229.87486,408.16414 -230.42529,415.41713 -230.986,419.67163 C -231.33215,422.29792 -231.61536,424.65691 -231.61536,424.91384 C -231.61536,425.36359 -230.99333,425.38098 -214.90994,425.38098 L -198.20452,425.38098 L -193.89317,421.21248 C -191.5219,418.9198 -189.47567,417.04397 -189.34596,417.04397 C -189.09714,417.04397 -178.90259,424.33018 -177.88818,425.23303 C -176.88014,426.13023 -175.84725,428.18778 -175.84464,429.3038 C -175.84181,430.52406 -176.30731,431.25468 -177.61748,432.08638 L -178.59585,432.70745 L -205.56188,432.70745 L -232.5279,432.70745 L -233.23227,435.42329 C -233.61969,436.917 -233.95137,438.35667 -233.96936,438.62255 C -233.99682,439.0288 -233.19992,439.39673 -228.97744,440.92728 C -215.08623,445.96253 -204.22797,451.4628 -197.03831,457.1061 C -194.49373,459.10339 -193.04567,460.72547 -192.20646,462.51857 C -191.64431,463.71976 -191.55534,464.25047 -191.55017,466.43444 C -191.54507,468.5844 -191.62914,469.12074 -192.11441,470.03423 C -192.92673,471.56342 -194.22602,472.34735 -196.26558,472.53888 C -199.52268,472.84473 -201.0468,471.99043 -204.88441,467.70786 C -208.49803,463.67525 -211.15428,461.02202 -213.14995,459.45173 C -218.53268,455.21633 -225.12367,451.0443 -233.57061,446.52572 L -236.55569,444.92887 L -238.23798,447.89549 C -244.11347,458.25673 -253.40886,466.77837 -265.43974,472.83301 C -268.84998,474.54924 -275.23004,477.19181 -275.82289,477.13364 C -276.03508,477.11283 -276.54785,477.04688 -276.96237,476.98709 z"
       id="path2404"
       sodipodi:nodetypes="csscccccccsssccccccccccssscccccccssssccccccccccccssssssssssccccccccccsscccccsscccssscccccssssssssscccssc" />
  </g>
</svg>
